<?xml version="1.0" standalone="no"?>
<!DOCTYPE svg PUBLIC "-//W3C//DTD SVG 20010904//EN"
 "http://www.w3.org/TR/2001/REC-SVG-20010904/DTD/svg10.dtd">
<svg version="1.0" xmlns="http://www.w3.org/2000/svg"
 width="48.000000pt" height="48.000000pt" viewBox="0 0 48.000000 48.000000"
 preserveAspectRatio="xMidYMid meet">

<g transform="translate(0.000000,48.000000) scale(0.100000,-0.100000)"
fill="#000000" stroke="none">
<path d="M162 394 c-110 -56 -124 -216 -25 -291 45 -35 125 -43 177 -18 114
54 129 216 29 292 -45 34 -131 42 -181 17z m147 -32 c93 -50 93 -194 0 -244
-95 -51 -209 16 -209 122 0 76 64 140 140 140 19 0 51 -8 69 -18z"/>
<path d="M230 335 c0 -8 5 -15 10 -15 6 0 10 7 10 15 0 8 -4 15 -10 15 -5 0
-10 -7 -10 -15z"/>
<path d="M160 310 c0 -5 5 -10 10 -10 6 0 10 5 10 10 0 6 -4 10 -10 10 -5 0
-10 -4 -10 -10z"/>
<path d="M272 290 c-13 -16 -29 -30 -36 -30 -8 0 -16 -9 -19 -21 -3 -12 -10
-18 -16 -15 -19 12 -20 -12 -1 -29 18 -17 25 -14 21 8 -1 5 8 11 19 14 11 3
20 11 20 19 0 7 14 23 30 36 31 23 40 48 17 48 -7 0 -23 -13 -35 -30z"/>
<path d="M130 240 c0 -5 7 -10 15 -10 8 0 15 5 15 10 0 6 -7 10 -15 10 -8 0
-15 -4 -15 -10z"/>
<path d="M320 240 c0 -5 7 -10 15 -10 8 0 15 5 15 10 0 6 -7 10 -15 10 -8 0
-15 -4 -15 -10z"/>
<path d="M165 179 c-10 -15 3 -25 16 -12 7 7 7 13 1 17 -6 3 -14 1 -17 -5z"/>
<path d="M296 182 c-3 -6 -1 -14 5 -17 15 -10 25 3 12 16 -7 7 -13 7 -17 1z"/>
<path d="M230 145 c0 -8 5 -15 10 -15 6 0 10 7 10 15 0 8 -4 15 -10 15 -5 0
-10 -7 -10 -15z"/>
</g>
</svg>
