<?xml version="1.0" standalone="no"?>
<!DOCTYPE svg PUBLIC "-//W3C//DTD SVG 20010904//EN"
 "http://www.w3.org/TR/2001/REC-SVG-20010904/DTD/svg10.dtd">
<svg version="1.0" xmlns="http://www.w3.org/2000/svg"
 width="48.000000pt" height="48.000000pt" viewBox="0 0 48.000000 48.000000"
 preserveAspectRatio="xMidYMid meet">

<g transform="translate(0.000000,48.000000) scale(0.100000,-0.100000)"
fill="#000000" stroke="none">
<path d="M195 416 c-17 -12 -21 -32 -27 -123 -3 -59 -9 -123 -13 -141 -9 -40
11 -74 54 -92 62 -25 130 29 116 92 -4 18 -10 82 -13 141 -8 118 -18 137 -72
137 -14 0 -35 -6 -45 -14z m73 -28 c8 -8 12 -46 12 -105 0 -53 5 -101 11 -112
30 -47 -25 -106 -76 -83 -29 13 -43 57 -26 83 6 11 11 59 11 112 0 95 8 117
40 117 9 0 21 -5 28 -12z"/>
<path d="M226 274 c-3 -9 -6 -33 -6 -55 0 -22 -5 -48 -12 -58 -9 -15 -9 -23 1
-35 29 -35 82 -6 62 33 -6 11 -11 38 -11 60 0 43 -8 71 -20 71 -4 0 -11 -7
-14 -16z"/>
</g>
</svg>
