<?xml version="1.0" standalone="no"?>
<!DOCTYPE svg PUBLIC "-//W3C//DTD SVG 20010904//EN"
 "http://www.w3.org/TR/2001/REC-SVG-20010904/DTD/svg10.dtd">
<svg version="1.0" xmlns="http://www.w3.org/2000/svg"
 width="48.000000pt" height="48.000000pt" viewBox="0 0 48.000000 48.000000"
 preserveAspectRatio="xMidYMid meet">

<g transform="translate(0.000000,48.000000) scale(0.100000,-0.100000)"
fill="#000000" stroke="none">
<path d="M210 385 c-9 -11 -10 -19 -3 -26 8 -8 13 -7 17 0 12 19 48 13 44 -6
-3 -15 -16 -18 -83 -21 -96 -3 -128 -9 -123 -24 3 -8 35 -11 104 -9 82 2 102
6 119 21 15 16 17 25 9 47 -11 34 -62 44 -84 18z"/>
<path d="M325 317 c-20 -17 -26 -29 -22 -42 7 -16 10 -15 32 9 27 29 36 31 53
14 17 -17 15 -43 -3 -58 -13 -11 -30 -10 -93 3 -112 24 -220 19 -230 -11 -3
-9 14 -10 70 -6 52 5 95 2 147 -10 82 -19 126 -14 141 14 39 72 -35 139 -95
87z"/>
<path d="M87 178 c-31 -11 -31 -35 -1 -30 111 19 184 10 184 -24 0 -22 -31
-30 -42 -11 -13 24 -30 21 -26 -4 4 -29 29 -43 61 -35 51 12 44 86 -9 106 -32
13 -131 11 -167 -2z"/>
</g>
</svg>
