<?xml version="1.0" standalone="no"?>
<!DOCTYPE svg PUBLIC "-//W3C//DTD SVG 20010904//EN"
 "http://www.w3.org/TR/2001/REC-SVG-20010904/DTD/svg10.dtd">
<svg version="1.0" xmlns="http://www.w3.org/2000/svg"
 width="48.000000pt" height="48.000000pt" viewBox="0 0 48.000000 48.000000"
 preserveAspectRatio="xMidYMid meet">

<g transform="translate(0.000000,48.000000) scale(0.100000,-0.100000)"
fill="#000000" stroke="none">
<path d="M227 454 c-4 -4 -7 -17 -7 -30 0 -17 -4 -21 -20 -17 -29 8 -25 -9 10
-42 l30 -29 30 29 c34 33 39 50 11 42 -16 -4 -21 1 -23 21 -3 26 -18 38 -31
26z"/>
<path d="M225 290 c-7 -23 2 -60 15 -60 5 0 12 9 15 20 7 23 -2 60 -15 60 -5
0 -12 -9 -15 -20z"/>
<path d="M126 271 c-8 -13 19 -61 34 -61 16 0 12 26 -8 51 -13 16 -21 19 -26
10z"/>
<path d="M326 259 c-9 -13 -16 -29 -16 -36 0 -21 18 -15 36 13 23 34 4 56 -20
23z"/>
<path d="M180 192 c-19 -11 -43 -35 -53 -55 -17 -34 -22 -37 -63 -37 -32 0
-44 -4 -44 -15 0 -13 31 -15 220 -15 189 0 220 2 220 15 0 11 -12 15 -50 15
-42 0 -50 3 -50 19 0 23 -42 68 -75 81 -38 15 -66 12 -105 -8z m119 -38 c53
-44 43 -54 -59 -54 -71 0 -90 3 -90 14 0 23 59 66 90 66 16 0 42 -11 59 -26z"/>
<path d="M46 191 c-6 -9 36 -41 54 -41 16 0 12 21 -7 36 -21 16 -40 18 -47 5z"/>
<path d="M388 186 c-20 -15 -24 -36 -8 -36 18 0 60 32 54 41 -7 13 -26 11 -46
-5z"/>
</g>
</svg>
