<?xml version="1.0" standalone="no"?>
<!DOCTYPE svg PUBLIC "-//W3C//DTD SVG 20010904//EN"
 "http://www.w3.org/TR/2001/REC-SVG-20010904/DTD/svg10.dtd">
<svg version="1.0" xmlns="http://www.w3.org/2000/svg"
 width="48.000000pt" height="48.000000pt" viewBox="0 0 48.000000 48.000000"
 preserveAspectRatio="xMidYMid meet">

<g transform="translate(0.000000,48.000000) scale(0.100000,-0.100000)"
fill="#000000" stroke="none">
<path d="M179 397 c-18 -12 -39 -34 -46 -47 -29 -58 -2 -135 56 -161 41 -18
39 -29 -4 -29 -19 0 -37 -6 -42 -14 -4 -8 -25 -16 -46 -18 -49 -4 -48 -22 2
-26 22 -2 45 -10 51 -18 17 -20 163 -20 180 0 6 8 30 16 53 18 53 4 55 22 2
26 -22 2 -44 10 -48 18 -5 8 -23 14 -42 14 -43 0 -45 12 -5 27 16 6 38 26 49
44 38 61 23 125 -38 166 -43 29 -79 29 -122 0z m129 -43 c30 -34 29 -83 -3
-118 -53 -57 -155 -19 -155 58 0 86 101 125 158 60z m-3 -239 c0 -11 -99 -20
-122 -11 -8 3 -11 11 -8 16 8 14 130 9 130 -5z"/>
<path d="M251 328 c-21 -22 -28 -48 -13 -48 9 0 33 25 46 47 12 22 -13 23 -33
1z"/>
</g>
</svg>
