<?xml version="1.0" standalone="no"?>
<!DOCTYPE svg PUBLIC "-//W3C//DTD SVG 20010904//EN"
 "http://www.w3.org/TR/2001/REC-SVG-20010904/DTD/svg10.dtd">
<svg version="1.0" xmlns="http://www.w3.org/2000/svg"
 width="48.000000pt" height="48.000000pt" viewBox="0 0 48.000000 48.000000"
 preserveAspectRatio="xMidYMid meet">

<g transform="translate(0.000000,48.000000) scale(0.100000,-0.100000)"
fill="#000000" stroke="none">
<path d="M235 387 c-17 -8 -36 -21 -44 -30 -7 -10 -24 -17 -36 -17 -15 0 -38
-18 -69 -56 -58 -71 -62 -109 -14 -149 31 -26 31 -26 181 -23 142 3 150 4 168
27 24 29 24 69 2 101 -10 14 -25 45 -33 69 -24 71 -93 106 -155 78z m109 -47
c11 -10 20 -35 21 -56 2 -26 9 -43 24 -52 25 -17 27 -54 5 -76 -23 -23 -269
-23 -302 0 -29 20 -30 68 -1 88 12 8 27 25 33 38 8 16 22 24 44 26 18 2 36 10
39 18 16 43 99 52 137 14z"/>
</g>
</svg>
