<?xml version="1.0" standalone="no"?>
<!DOCTYPE svg PUBLIC "-//W3C//DTD SVG 20010904//EN"
 "http://www.w3.org/TR/2001/REC-SVG-20010904/DTD/svg10.dtd">
<svg version="1.0" xmlns="http://www.w3.org/2000/svg"
 width="48.000000pt" height="48.000000pt" viewBox="0 0 48.000000 48.000000"
 preserveAspectRatio="xMidYMid meet">

<g transform="translate(0.000000,48.000000) scale(0.100000,-0.100000)"
fill="#000000" stroke="none">
<path d="M101 391 c-28 -53 -27 -97 0 -111 29 -16 68 -4 81 25 9 20 6 32 -13
71 -13 27 -29 50 -36 52 -7 2 -21 -15 -32 -37z m47 -36 c13 -29 6 -55 -14 -55
-19 0 -28 24 -20 55 8 32 20 32 34 0z"/>
<path d="M316 341 c-44 -86 -29 -141 39 -141 37 0 65 28 65 65 -1 25 -51 117
-67 122 -7 3 -23 -18 -37 -46z m60 -37 c20 -48 10 -76 -24 -72 -21 2 -28 9
-30 31 -3 25 20 77 34 77 3 0 12 -16 20 -36z"/>
<path d="M193 258 c-24 -30 -53 -100 -53 -128 0 -64 69 -91 115 -45 31 30 31
49 0 112 -31 62 -48 78 -62 61z m38 -83 c15 -35 17 -49 9 -65 -19 -36 -70 -19
-70 23 0 19 29 87 37 87 2 0 13 -20 24 -45z"/>
</g>
</svg>
