<?xml version="1.0" encoding="UTF-8"?>
<!DOCTYPE svg PUBLIC "-//W3C//DTD SVG 1.1//EN" "http://www.w3.org/Graphics/SVG/1.1/DTD/svg11.dtd">
<svg xmlns="http://www.w3.org/2000/svg" version="1.1" width="50px" height="50px" style="shape-rendering:geometricPrecision; text-rendering:geometricPrecision; image-rendering:optimizeQuality; fill-rule:evenodd; clip-rule:evenodd" xmlns:xlink="http://www.w3.org/1999/xlink">
<g><path style="opacity:0.678" fill="#000000" d="M 49.5,9.5 C 49.5,10.1667 49.5,10.8333 49.5,11.5C 46.8431,11.838 44.5098,11.1713 42.5,9.5C 38.5,12.1667 34.5,12.1667 30.5,9.5C 26.5,12.1667 22.5,12.1667 18.5,9.5C 14.5,12.1667 10.5,12.1667 6.5,9.5C 4.49024,11.1713 2.1569,11.838 -0.5,11.5C -0.5,10.8333 -0.5,10.1667 -0.5,9.5C 1.96874,8.43145 4.30207,7.09811 6.5,5.5C 10.5,9.5 14.5,9.5 18.5,5.5C 22.5,9.5 26.5,9.5 30.5,5.5C 34.5,9.5 38.5,9.5 42.5,5.5C 44.3813,7.57625 46.7146,8.90958 49.5,9.5 Z"/></g>
<g><path style="opacity:0.678" fill="#000000" d="M 49.5,25.5 C 49.5,26.1667 49.5,26.8333 49.5,27.5C 46.8431,27.838 44.5098,27.1713 42.5,25.5C 38.5,28.1667 34.5,28.1667 30.5,25.5C 26.5,28.1667 22.5,28.1667 18.5,25.5C 14.5,28.1667 10.5,28.1667 6.5,25.5C 4.49024,27.1713 2.1569,27.838 -0.5,27.5C -0.5,26.8333 -0.5,26.1667 -0.5,25.5C 1.96874,24.4314 4.30207,23.0981 6.5,21.5C 10.5,25.5 14.5,25.5 18.5,21.5C 22.5,25.5 26.5,25.5 30.5,21.5C 34.5,25.5 38.5,25.5 42.5,21.5C 44.3813,23.5763 46.7146,24.9096 49.5,25.5 Z"/></g>
<g><path style="opacity:0.678" fill="#000000" d="M 49.5,41.5 C 49.5,42.1667 49.5,42.8333 49.5,43.5C 46.8431,43.838 44.5098,43.1713 42.5,41.5C 38.5,44.1667 34.5,44.1667 30.5,41.5C 26.5,44.1667 22.5,44.1667 18.5,41.5C 14.5,44.1667 10.5,44.1667 6.5,41.5C 4.49024,43.1713 2.1569,43.838 -0.5,43.5C -0.5,42.8333 -0.5,42.1667 -0.5,41.5C 1.96874,40.4314 4.30207,39.0981 6.5,37.5C 10.5,41.5 14.5,41.5 18.5,37.5C 22.5,41.5 26.5,41.5 30.5,37.5C 34.5,41.5 38.5,41.5 42.5,37.5C 44.3813,39.5763 46.7146,40.9096 49.5,41.5 Z"/></g>
</svg>
