<?xml version="1.0" standalone="no"?>
<!DOCTYPE svg PUBLIC "-//W3C//DTD SVG 20010904//EN"
 "http://www.w3.org/TR/2001/REC-SVG-20010904/DTD/svg10.dtd">
<svg version="1.0" xmlns="http://www.w3.org/2000/svg"
 width="48.000000pt" height="48.000000pt" viewBox="0 0 48.000000 48.000000"
 preserveAspectRatio="xMidYMid meet">

<g transform="translate(0.000000,48.000000) scale(0.100000,-0.100000)"
fill="#000000" stroke="none">
<path d="M153 379 c-100 -64 -99 -217 1 -278 41 -26 136 -30 136 -6 0 11 -12
15 -46 15 -82 0 -134 51 -134 130 0 50 22 91 60 114 58 34 152 12 181 -41 12
-23 39 -32 39 -13 0 20 -32 60 -65 80 -44 27 -128 27 -172 -1z"/>
<path d="M230 335 c0 -8 5 -15 10 -15 6 0 10 7 10 15 0 8 -4 15 -10 15 -5 0
-10 -7 -10 -15z"/>
<path d="M160 310 c0 -5 5 -10 10 -10 6 0 10 5 10 10 0 6 -4 10 -10 10 -5 0
-10 -4 -10 -10z"/>
<path d="M263 287 c-24 -17 -43 -39 -43 -49 0 -32 34 -19 68 27 48 66 42 72
-25 22z"/>
<path d="M345 225 c-39 -67 -43 -110 -15 -140 30 -32 64 -32 95 0 31 30 31 53
1 113 -39 77 -49 80 -81 27z m66 -66 c13 -42 1 -69 -30 -69 -41 0 -51 38 -24
94 20 42 37 35 54 -25z"/>
<path d="M130 240 c0 -5 7 -10 15 -10 8 0 15 5 15 10 0 6 -7 10 -15 10 -8 0
-15 -4 -15 -10z"/>
<path d="M165 179 c-10 -15 3 -25 16 -12 7 7 7 13 1 17 -6 3 -14 1 -17 -5z"/>
</g>
</svg>
