<?xml version="1.0" standalone="no"?>
<!DOCTYPE svg PUBLIC "-//W3C//DTD SVG 20010904//EN"
 "http://www.w3.org/TR/2001/REC-SVG-20010904/DTD/svg10.dtd">
<svg version="1.0" xmlns="http://www.w3.org/2000/svg"
 width="48.000000pt" height="48.000000pt" viewBox="0 0 48.000000 48.000000"
 preserveAspectRatio="xMidYMid meet">

<g transform="translate(0.000000,48.000000) scale(0.100000,-0.100000)"
fill="#000000" stroke="none">
<path d="M206 401 c-29 -30 -28 -64 0 -40 11 9 14 7 14 -12 0 -13 5 -31 10
-39 9 -13 11 -13 20 0 5 8 10 26 10 39 0 19 3 21 14 12 11 -9 16 -9 21 -1 7
11 -40 70 -55 70 -3 0 -19 -13 -34 -29z"/>
<path d="M221 240 c-11 -33 -31 -39 -51 -15 -20 24 -32 17 -25 -13 7 -34 -18
-63 -37 -44 -16 16 -38 15 -38 -2 0 -8 9 -18 21 -21 13 -4 18 -12 15 -22 -3
-8 -6 -19 -6 -24 0 -5 -11 -9 -25 -9 -16 0 -25 -6 -25 -15 0 -13 28 -15 190
-15 162 0 190 2 190 15 0 9 -9 15 -25 15 -14 0 -25 4 -25 9 0 5 -3 16 -6 24
-3 10 2 18 15 22 12 3 21 13 21 21 0 17 -22 18 -38 2 -19 -19 -44 10 -37 44 7
30 -5 37 -25 13 -20 -24 -40 -18 -51 15 -6 17 -15 30 -19 30 -4 0 -13 -13 -19
-30z m62 -64 c31 -13 67 -53 67 -76 0 -6 -41 -10 -110 -10 -118 0 -125 4 -94
49 16 22 66 50 92 51 7 0 27 -6 45 -14z"/>
</g>
</svg>
